<svg id="Ebene_1" data-name="Ebene 1" xmlns="http://www.w3.org/2000/svg" xmlns:xlink="http://www.w3.org/1999/xlink" viewBox="0 0 569.67 155.17"><defs><style>.cls-1{fill:none;}.cls-2{clip-path:url(#clip-path);}.cls-3{clip-path:url(#clip-path-2);}.cls-4{fill:url(#Unbenannter_Verlauf_2);}.cls-5{fill:#0e181e;}</style><clipPath id="clip-path"><path class="cls-1" d="M25.94,17.26V91.71H9.84V9.39h8.35A7.91,7.91,0,0,1,25.94,17.26ZM45.8,9.39c5.32,0,7.86,2.66,7.74,7.87V22H37.44V9.39Zm0,18.28c5.2,0,7.74,2.54,7.74,7.75V91.71H37.44v-64ZM121.7,17.5V64c0,19.25-10,28.81-30,28.69Q61.89,92.14,61.9,60.24c0-21.8,8.47-32.93,25.54-33.54,8,0,14.17,3.27,18.28,9.93V9.39h8A8.16,8.16,0,0,1,121.7,17.5Zm-43.22,42C78.36,72.46,82.72,79,91.92,79s13.8-6.54,13.8-19.49c-.36-12.35-4.84-18.4-13.56-18.4S79,47.16,78.48,59.51Zm67.07-15.13h-16.1c1.94-11.87,10.29-17.68,25.06-17.68,17.68,0,26.63,5.81,27,17.68V66.17c0,17.67-10.66,25.54-28,26.75-15.37,1.21-26-5.93-26-20.09.37-15.38,11.5-19.49,27.73-21.07,6.9-.85,10.41-2.9,10.41-6.41-.37-3.64-3.75-5.45-10.41-5.45C149.55,39.9,146.4,41.35,145.55,44.38Zm20.34,21.06V59.51a69.31,69.31,0,0,1-12.83,3.87c-6.42,1.21-9.69,4.24-9.69,9,.37,5.09,3,7.51,8.11,7.51C160.44,79.85,165.89,74.52,165.89,65.44Z"/></clipPath><clipPath id="clip-path-2"><rect class="cls-1" x="-594.14" y="2.01" width="789.4" height="95.12"/></clipPath><linearGradient id="Unbenannter_Verlauf_2" x1="-594.14" y1="49.57" x2="195.26" y2="49.57" gradientUnits="userSpaceOnUse"><stop offset="0" stop-color="#c62687"/><stop offset="0.15" stop-color="#c62687"/><stop offset="0.45" stop-color="#a1449a"/><stop offset="0.81" stop-color="#6b7ec1"/><stop offset="0.94" stop-color="#3a9dd6"/><stop offset="1" stop-color="#3a9dd6"/></linearGradient></defs><title>Lida Logo</title><g class="cls-2"><g class="cls-3"><rect class="cls-4" x="-594.14" y="2.01" width="789.4" height="95.12"/></g></g><path class="cls-5" d="M9.87,143.18v-18a.52.52,0,0,1,.14-.36.49.49,0,0,1,.38-.16h2.17a.46.46,0,0,1,.37.16.49.49,0,0,1,.15.36v15.74h9.18a.55.55,0,0,1,.37.14.52.52,0,0,1,.15.38v1.73a.55.55,0,0,1-.52.52H10.39a.52.52,0,0,1-.38-.15A.53.53,0,0,1,9.87,143.18Z"/><path class="cls-5" d="M25.05,125.71a1.63,1.63,0,0,1,1.84-1.85,1.85,1.85,0,1,1,0,3.69A1.62,1.62,0,0,1,25.05,125.71Zm.31,17.47v-13a.5.5,0,0,1,.15-.37.49.49,0,0,1,.36-.15h2.06a.49.49,0,0,1,.36.15.47.47,0,0,1,.16.37v13a.48.48,0,0,1-.16.38.52.52,0,0,1-.36.14H25.87a.52.52,0,0,1-.36-.14A.5.5,0,0,1,25.36,143.18Z"/><path class="cls-5" d="M32.07,139.53a8.6,8.6,0,0,1-.5-3,8.51,8.51,0,0,1,.5-3,6.56,6.56,0,0,1,1.37-2.29,6.42,6.42,0,0,1,2-1.42,6.15,6.15,0,0,1,4.41-.19,4.68,4.68,0,0,1,1.53.85v-.33a.5.5,0,0,1,.15-.37.48.48,0,0,1,.37-.15H44a.47.47,0,0,1,.35.15.49.49,0,0,1,.14.37v12.32q0,3.53-1.62,5.1c-1.08,1.06-2.79,1.58-5.12,1.58a10.71,10.71,0,0,1-4.51-.9.47.47,0,0,1-.3-.52l.12-1.74a.49.49,0,0,1,.19-.41.42.42,0,0,1,.43,0,8.13,8.13,0,0,0,4.07,1,4,4,0,0,0,2.72-.83,3.37,3.37,0,0,0,.92-2.63v-.59a4.87,4.87,0,0,1-1.53.85,6,6,0,0,1-1.95.32,5.94,5.94,0,0,1-2.46-.52,6.11,6.11,0,0,1-2-1.42A6.65,6.65,0,0,1,32.07,139.53Zm3.66-6.46a6.36,6.36,0,0,0,0,6.91,3.15,3.15,0,0,0,2.55,1.23,4.66,4.66,0,0,0,1.75-.33,3.57,3.57,0,0,0,1.37-1v-6.79a3.55,3.55,0,0,0-1.37-.95,4.66,4.66,0,0,0-1.75-.33A3.17,3.17,0,0,0,35.73,133.07Z"/><path class="cls-5" d="M48.3,143.18v-18.8a.53.53,0,0,1,.15-.36.46.46,0,0,1,.34-.16h2.1a.55.55,0,0,1,.52.52v6.09A5.65,5.65,0,0,1,55,129.3,5.51,5.51,0,0,1,59.21,131a6.85,6.85,0,0,1,1.54,4.8v7.41a.5.5,0,0,1-.15.38.49.49,0,0,1-.34.14H58.15a.48.48,0,0,1-.49-.52v-7.44a4.63,4.63,0,0,0-.77-3,2.91,2.91,0,0,0-2.39-.94,4.49,4.49,0,0,0-1.71.33,3.67,3.67,0,0,0-1.38.95v10.05a.51.51,0,0,1-.16.38.52.52,0,0,1-.36.14h-2.1a.48.48,0,0,1-.34-.14A.5.5,0,0,1,48.3,143.18Z"/><path class="cls-5" d="M62.38,131.61v-1.47a.5.5,0,0,1,.15-.37.51.51,0,0,1,.37-.15h1.82v-3.69a.49.49,0,0,1,.14-.37.46.46,0,0,1,.35-.14h2.11a.45.45,0,0,1,.34.14.5.5,0,0,1,.15.37v3.69h3.7a.49.49,0,0,1,.35.15.53.53,0,0,1,.14.37v1.47a.51.51,0,0,1-.14.37.49.49,0,0,1-.35.15h-3.7v6.1a6.81,6.81,0,0,0,.24,2.06,1.58,1.58,0,0,0,.65,1,2.4,2.4,0,0,0,1.18.23,5.91,5.91,0,0,0,1.3-.13c.27-.05.43,0,.46.29l.22,1.61s0,.1,0,.14a.48.48,0,0,1-.47.53,10.56,10.56,0,0,1-1.71.12A5.12,5.12,0,0,1,66,142.82a5,5,0,0,1-1.24-3.71v-7H62.9a.51.51,0,0,1-.37-.15A.48.48,0,0,1,62.38,131.61Z"/><path class="cls-5" d="M73.18,130.14c-.1-.34,0-.52.35-.52H75.7a.36.36,0,0,1,.26.14.67.67,0,0,1,.16.34l2.78,10.19L81.27,130c0-.22.22-.33.5-.33h2.92a.47.47,0,0,1,.49.43l2.33,10.2L90.28,130a.44.44,0,0,1,.17-.27.46.46,0,0,1,.29-.12h2.4c.36,0,.48.18.37.52l-4,13.2a.48.48,0,0,1-.19.26.49.49,0,0,1-.3.1H86c-.28,0-.44-.11-.49-.33l-2.34-10.44-2.31,10.33c0,.29-.21.44-.46.44H77.63a.46.46,0,0,1-.28-.1.44.44,0,0,1-.17-.26Z"/><path class="cls-5" d="M95.3,136.64a7.79,7.79,0,0,1,1.76-5.33,6.64,6.64,0,0,1,9.56,0,8.12,8.12,0,0,1,1.73,5.4v.62a.51.51,0,0,1-.15.37.48.48,0,0,1-.37.15H98.54c.21,2.39,1.63,3.58,4.29,3.58a7,7,0,0,0,3.57-.81.75.75,0,0,1,.29-.08c.19,0,.3.15.33.43l.16,1.6a.5.5,0,0,1-.25.55,10.42,10.42,0,0,1-7.51.32,5.8,5.8,0,0,1-2.31-1.54,6.87,6.87,0,0,1-1.35-2.34A9.24,9.24,0,0,1,95.3,136.64Zm3.24-1.26h6.57a4.27,4.27,0,0,0-1-2.64,3.33,3.33,0,0,0-4.52,0A4.3,4.3,0,0,0,98.54,135.38Z"/><path class="cls-5" d="M111,125.71a1.85,1.85,0,1,1,1.84,1.84A1.63,1.63,0,0,1,111,125.71Zm.3,17.47v-13a.51.51,0,0,1,.16-.37.49.49,0,0,1,.36-.15h2.06a.49.49,0,0,1,.36.15.47.47,0,0,1,.16.37v13a.48.48,0,0,1-.16.38.52.52,0,0,1-.36.14h-2.06a.52.52,0,0,1-.36-.14A.51.51,0,0,1,111.33,143.18Z"/><path class="cls-5" d="M118.05,139.53a8.6,8.6,0,0,1-.5-3,8.51,8.51,0,0,1,.5-3,6.56,6.56,0,0,1,1.37-2.29,6.42,6.42,0,0,1,2-1.42,6.15,6.15,0,0,1,4.41-.19,4.68,4.68,0,0,1,1.53.85v-.33a.53.53,0,0,1,.14-.37.52.52,0,0,1,.38-.15H130a.47.47,0,0,1,.35.15.49.49,0,0,1,.14.37v12.32q0,3.53-1.62,5.1c-1.09,1.06-2.79,1.58-5.12,1.58a10.71,10.71,0,0,1-4.51-.9.47.47,0,0,1-.3-.52l.12-1.74a.49.49,0,0,1,.19-.41.42.42,0,0,1,.43,0,8.13,8.13,0,0,0,4.07,1,4,4,0,0,0,2.72-.83,3.37,3.37,0,0,0,.92-2.63v-.59a4.87,4.87,0,0,1-1.53.85,6,6,0,0,1-1.95.32,5.87,5.87,0,0,1-2.46-.52,6.11,6.11,0,0,1-2-1.42A6.65,6.65,0,0,1,118.05,139.53Zm3.66-6.46a6.36,6.36,0,0,0,0,6.91,3.15,3.15,0,0,0,2.55,1.23,4.66,4.66,0,0,0,1.75-.33,3.57,3.57,0,0,0,1.37-1v-6.79a3.55,3.55,0,0,0-1.37-.95,4.66,4.66,0,0,0-1.75-.33A3.17,3.17,0,0,0,121.71,133.07Z"/><path class="cls-5" d="M134.28,143.18v-18.8a.53.53,0,0,1,.15-.36.46.46,0,0,1,.34-.16h2.1a.54.54,0,0,1,.36.16.53.53,0,0,1,.15.36v6.09a5.7,5.7,0,0,1,3.56-1.17,5.51,5.51,0,0,1,4.25,1.67,6.85,6.85,0,0,1,1.54,4.8v7.41a.5.5,0,0,1-.15.38.49.49,0,0,1-.34.14h-2.11a.48.48,0,0,1-.49-.52v-7.44a4.63,4.63,0,0,0-.77-3,2.91,2.91,0,0,0-2.39-.94,4.49,4.49,0,0,0-1.71.33,3.78,3.78,0,0,0-1.39.95v10.05a.5.5,0,0,1-.15.38.52.52,0,0,1-.36.14h-2.1a.48.48,0,0,1-.34-.14A.5.5,0,0,1,134.28,143.18Z"/><path class="cls-5" d="M148.36,131.61v-1.47a.5.5,0,0,1,.15-.37.51.51,0,0,1,.37-.15h1.82v-3.69a.49.49,0,0,1,.14-.37.46.46,0,0,1,.35-.14h2.11a.45.45,0,0,1,.34.14.5.5,0,0,1,.15.37v3.69h3.7a.49.49,0,0,1,.35.15.53.53,0,0,1,.14.37v1.47a.51.51,0,0,1-.14.37.49.49,0,0,1-.35.15h-3.7v6.1a6.81,6.81,0,0,0,.24,2.06,1.58,1.58,0,0,0,.65,1,2.4,2.4,0,0,0,1.18.23,5.91,5.91,0,0,0,1.3-.13c.27-.05.43,0,.46.29l.22,1.61s0,.1,0,.14a.48.48,0,0,1-.47.53,10.56,10.56,0,0,1-1.71.12,5.12,5.12,0,0,1-3.73-1.21,5,5,0,0,1-1.24-3.71v-7h-1.82a.51.51,0,0,1-.37-.15A.48.48,0,0,1,148.36,131.61Z"/><path class="cls-5" d="M169.1,143.18v-18a.5.5,0,0,1,.16-.36.54.54,0,0,1,.36-.16h2.18a.55.55,0,0,1,.51.52v18a.46.46,0,0,1-.16.36.46.46,0,0,1-.35.16h-2.18a.5.5,0,0,1-.36-.16A.46.46,0,0,1,169.1,143.18Z"/><path class="cls-5" d="M176.51,143.18v-13a.51.51,0,0,1,.14-.36.48.48,0,0,1,.35-.16h2.09a.5.5,0,0,1,.36.16.5.5,0,0,1,.16.36v.33a5.68,5.68,0,0,1,3.56-1.17,5.48,5.48,0,0,1,4.24,1.67,6.8,6.8,0,0,1,1.54,4.8v7.41a.48.48,0,0,1-.49.52h-2.11a.49.49,0,0,1-.34-.14.5.5,0,0,1-.15-.38v-7.44a4.57,4.57,0,0,0-.77-3,2.9,2.9,0,0,0-2.39-.94,4.56,4.56,0,0,0-1.71.33,3.67,3.67,0,0,0-1.38.95v10.05a.5.5,0,0,1-.15.38.53.53,0,0,1-.37.14H177a.48.48,0,0,1-.49-.52Z"/><path class="cls-5" d="M191.13,131.61v-1.47a.5.5,0,0,1,.15-.37.51.51,0,0,1,.37-.15h1.82v-3.69a.49.49,0,0,1,.14-.37.46.46,0,0,1,.35-.14h2.11a.45.45,0,0,1,.34.14.5.5,0,0,1,.15.37v3.69h3.7a.49.49,0,0,1,.35.15.53.53,0,0,1,.14.37v1.47a.51.51,0,0,1-.14.37.49.49,0,0,1-.35.15h-3.7v6.1a6.81,6.81,0,0,0,.24,2.06,1.58,1.58,0,0,0,.65,1,2.4,2.4,0,0,0,1.18.23,5.91,5.91,0,0,0,1.3-.13c.27-.05.43,0,.46.29l.22,1.61s0,.1,0,.14a.48.48,0,0,1-.47.53,10.56,10.56,0,0,1-1.71.12,5.12,5.12,0,0,1-3.73-1.21,5,5,0,0,1-1.24-3.71v-7h-1.82a.51.51,0,0,1-.37-.15A.48.48,0,0,1,191.13,131.61Z"/><path class="cls-5" d="M202.37,136.64a7.79,7.79,0,0,1,1.76-5.33,6.63,6.63,0,0,1,9.55,0,8.07,8.07,0,0,1,1.74,5.4v.62a.51.51,0,0,1-.15.37.5.5,0,0,1-.37.15h-9.29q.3,3.59,4.28,3.58a7,7,0,0,0,3.57-.81.84.84,0,0,1,.3-.08c.18,0,.29.15.33.43l.16,1.6a.51.51,0,0,1-.25.55,9.17,9.17,0,0,1-4.24.87,9,9,0,0,1-3.27-.55,5.9,5.9,0,0,1-2.32-1.54,6.69,6.69,0,0,1-1.34-2.34A9,9,0,0,1,202.37,136.64Zm3.24-1.26h6.57a4.27,4.27,0,0,0-1-2.64,3,3,0,0,0-2.25-.89,3.05,3.05,0,0,0-2.27.88A4.23,4.23,0,0,0,205.61,135.38Z"/><path class="cls-5" d="M218.25,143.18v-13a.5.5,0,0,1,.15-.37.47.47,0,0,1,.35-.15h2.09a.48.48,0,0,1,.37.15.5.5,0,0,1,.15.37v.62a4.42,4.42,0,0,1,3.5-1.46,7,7,0,0,1,1.49.15.44.44,0,0,1,.36.53l-.21,2a.39.39,0,0,1-.16.25.37.37,0,0,1-.31,0,4.37,4.37,0,0,0-1.5-.25,3.23,3.23,0,0,0-1.94.58,3.47,3.47,0,0,0-1.23,1.65v9a.5.5,0,0,1-.15.38.51.51,0,0,1-.37.14h-2.09a.5.5,0,0,1-.5-.52Z"/><path class="cls-5" d="M227.72,139.47a4.17,4.17,0,0,1,1.66-3.5,7.44,7.44,0,0,1,4.67-1.29H237V134a1.9,1.9,0,0,0-.68-1.68,4.25,4.25,0,0,0-2.3-.47,9.49,9.49,0,0,0-4.28,1,.68.68,0,0,1-.25.07c-.18,0-.3-.15-.34-.45l-.19-1.64a.45.45,0,0,1,.27-.49,8.66,8.66,0,0,1,2.26-.77,13.35,13.35,0,0,1,2.66-.28c2.1,0,3.61.4,4.54,1.2s1.4,2.16,1.4,4.1v8.58a.5.5,0,0,1-.15.38.52.52,0,0,1-.35.14h-2.07a.52.52,0,0,1-.36-.14.48.48,0,0,1-.16-.38v-.31a5.91,5.91,0,0,1-3.86,1.16,6,6,0,0,1-3.86-1.19A4,4,0,0,1,227.72,139.47Zm3.14-.07q0,2.07,2.67,2.07A4.27,4.27,0,0,0,237,140.2v-3h-2.8C232,137.17,230.86,137.92,230.86,139.4Z"/><path class="cls-5" d="M242.9,136.67a7.19,7.19,0,0,1,2-5.36,7.48,7.48,0,0,1,5.49-2,9.31,9.31,0,0,1,3.86.71.49.49,0,0,1,.31.54l-.17,1.69c0,.35-.21.45-.55.29a7.21,7.21,0,0,0-3.32-.68,4.32,4.32,0,0,0-3.25,1.3,4.82,4.82,0,0,0-1.26,3.52,4.71,4.71,0,0,0,1.31,3.52,4.81,4.81,0,0,0,3.54,1.28,6.49,6.49,0,0,0,3.1-.67q.52-.27.57.24l.19,1.79a.45.45,0,0,1-.31.49,8.93,8.93,0,0,1-3.71.71,8,8,0,0,1-5.74-2A7,7,0,0,1,242.9,136.67Z"/><path class="cls-5" d="M256.39,131.61v-1.47a.51.51,0,0,1,.16-.37.49.49,0,0,1,.36-.15h1.82v-3.69a.5.5,0,0,1,.15-.37.44.44,0,0,1,.34-.14h2.11a.47.47,0,0,1,.35.14.53.53,0,0,1,.14.37v3.69h3.7a.47.47,0,0,1,.35.15.5.5,0,0,1,.15.37v1.47a.48.48,0,0,1-.15.37.47.47,0,0,1-.35.15h-3.7v6.1a6.81,6.81,0,0,0,.24,2.06,1.58,1.58,0,0,0,.66,1,2.38,2.38,0,0,0,1.17.23,5.91,5.91,0,0,0,1.3-.13c.28-.05.43,0,.47.29l.21,1.61a.71.71,0,0,1,0,.14.48.48,0,0,1-.46.53,10.73,10.73,0,0,1-1.71.12,5.15,5.15,0,0,1-3.74-1.21,5,5,0,0,1-1.24-3.71v-7h-1.82a.53.53,0,0,1-.52-.52Z"/><path class="cls-5" d="M268.42,125.71a1.85,1.85,0,1,1,1.84,1.84A1.63,1.63,0,0,1,268.42,125.71Zm.3,17.47v-13a.47.47,0,0,1,.16-.37.49.49,0,0,1,.36-.15h2.06a.49.49,0,0,1,.36.15.5.5,0,0,1,.15.37v13a.5.5,0,0,1-.15.38.52.52,0,0,1-.36.14h-2.06a.52.52,0,0,1-.36-.14A.48.48,0,0,1,268.72,143.18Z"/><path class="cls-5" d="M274.38,130.17c-.13-.37,0-.55.35-.55h2.38a.51.51,0,0,1,.51.39l3.45,10.51L284.53,130a.51.51,0,0,1,.52-.38h2.4c.36,0,.48.18.36.55l-4.64,13.2a.47.47,0,0,1-.48.33h-3.2a.47.47,0,0,1-.49-.33Z"/><path class="cls-5" d="M289.13,136.64a7.79,7.79,0,0,1,1.76-5.33,6.64,6.64,0,0,1,9.56,0,8.12,8.12,0,0,1,1.73,5.4v.62a.51.51,0,0,1-.15.37.5.5,0,0,1-.37.15h-9.29q.3,3.59,4.29,3.58a7,7,0,0,0,3.57-.81.75.75,0,0,1,.29-.08c.18,0,.29.15.33.43l.16,1.6a.5.5,0,0,1-.25.55,9.17,9.17,0,0,1-4.24.87,9,9,0,0,1-3.27-.55,5.8,5.8,0,0,1-2.31-1.54,6.71,6.71,0,0,1-1.35-2.34A9,9,0,0,1,289.13,136.64Zm3.24-1.26h6.57a4.27,4.27,0,0,0-1-2.64,3,3,0,0,0-2.25-.89,3,3,0,0,0-2.26.88A4.24,4.24,0,0,0,292.37,135.38Z"/><path class="cls-5" d="M313.44,143.18v-18a.55.55,0,0,1,.52-.52h4.54a13.06,13.06,0,0,1,4.1.61,9.51,9.51,0,0,1,3.26,1.77,7.9,7.9,0,0,1,2.16,3,11.4,11.4,0,0,1,0,8.29,7.94,7.94,0,0,1-2.16,3,9.51,9.51,0,0,1-3.26,1.77,13.36,13.36,0,0,1-4.1.6H314a.5.5,0,0,1-.36-.16A.5.5,0,0,1,313.44,143.18Zm3.21-2.25h1.41a8.31,8.31,0,0,0,5.58-1.63c1.26-1.08,1.89-2.79,1.89-5.11s-.63-4-1.89-5.12a8.37,8.37,0,0,0-5.58-1.62h-1.41Z"/><path class="cls-5" d="M331.76,125.71a1.85,1.85,0,1,1,1.84,1.84A1.63,1.63,0,0,1,331.76,125.71Zm.3,17.47v-13a.47.47,0,0,1,.16-.37.49.49,0,0,1,.36-.15h2.06a.49.49,0,0,1,.36.15.5.5,0,0,1,.15.37v13a.5.5,0,0,1-.15.38.52.52,0,0,1-.36.14h-2.06a.52.52,0,0,1-.36-.14A.48.48,0,0,1,332.06,143.18Z"/><path class="cls-5" d="M338.14,139.47a4.17,4.17,0,0,1,1.66-3.5,7.44,7.44,0,0,1,4.67-1.29h2.91V134a1.88,1.88,0,0,0-.69-1.68,4.22,4.22,0,0,0-2.3-.47,9.45,9.45,0,0,0-4.27,1,.73.73,0,0,1-.25.07c-.19,0-.3-.15-.35-.45l-.19-1.64a.47.47,0,0,1,.27-.49,8.66,8.66,0,0,1,2.26-.77,13.43,13.43,0,0,1,2.66-.28c2.1,0,3.62.4,4.55,1.2s1.4,2.16,1.4,4.1v8.58a.5.5,0,0,1-.15.38.54.54,0,0,1-.36.14h-2.07a.52.52,0,0,1-.36-.14.5.5,0,0,1-.15-.38v-.31a5.94,5.94,0,0,1-3.87,1.16,6,6,0,0,1-3.86-1.19A4.07,4.07,0,0,1,338.14,139.47Zm3.15-.07c0,1.38.88,2.07,2.66,2.07a4.3,4.3,0,0,0,3.43-1.27v-3h-2.8C342.38,137.17,341.29,137.92,341.29,139.4Z"/><path class="cls-5" d="M354.28,143.18v-18.8a.5.5,0,0,1,.16-.36.5.5,0,0,1,.36-.16h2.05a.52.52,0,0,1,.36.16.5.5,0,0,1,.16.36v18.8a.5.5,0,0,1-.15.38.57.57,0,0,1-.37.14H354.8a.53.53,0,0,1-.37-.14A.5.5,0,0,1,354.28,143.18Z"/><path class="cls-5" d="M361.32,140.44a9,9,0,0,1,0-7.54,6.36,6.36,0,0,1,2.43-2.63,7.5,7.5,0,0,1,7.38,0,6.36,6.36,0,0,1,2.43,2.63,8.88,8.88,0,0,1,0,7.54,6.36,6.36,0,0,1-2.43,2.63,7.57,7.57,0,0,1-7.38,0A6.36,6.36,0,0,1,361.32,140.44Zm3.33-7.29a6.57,6.57,0,0,0,0,7,3.67,3.67,0,0,0,5.59,0,6.62,6.62,0,0,0,0-7,3.65,3.65,0,0,0-5.59,0Z"/><path class="cls-5" d="M377.08,139.53a8.61,8.61,0,0,1-.51-3,8.51,8.51,0,0,1,.51-3,6.54,6.54,0,0,1,1.36-2.29,6.46,6.46,0,0,1,2-1.42,6,6,0,0,1,2.46-.51,5.94,5.94,0,0,1,1.94.32,4.63,4.63,0,0,1,1.54.85v-.33a.49.49,0,0,1,.14-.37.5.5,0,0,1,.37-.15H389a.45.45,0,0,1,.34.15.5.5,0,0,1,.15.37v12.32q0,3.53-1.62,5.1c-1.09,1.06-2.79,1.58-5.12,1.58a10.71,10.71,0,0,1-4.51-.9.49.49,0,0,1-.31-.52l.12-1.74a.52.52,0,0,1,.19-.41.44.44,0,0,1,.44,0,8.11,8.11,0,0,0,4.07,1,3.94,3.94,0,0,0,2.71-.83,3.34,3.34,0,0,0,.93-2.63v-.59a4.82,4.82,0,0,1-1.54.85,5.94,5.94,0,0,1-1.94.32,5.87,5.87,0,0,1-2.46-.52,6.15,6.15,0,0,1-2-1.42A6.63,6.63,0,0,1,377.08,139.53Zm3.65-6.46a6.41,6.41,0,0,0,0,6.91,3.19,3.19,0,0,0,2.56,1.23,4.66,4.66,0,0,0,1.75-.33,3.65,3.65,0,0,0,1.37-1v-6.79a3.63,3.63,0,0,0-1.37-.95,4.66,4.66,0,0,0-1.75-.33A3.21,3.21,0,0,0,380.73,133.07Z"/><path class="cls-5" d="M393.17,137.56v-7.42a.5.5,0,0,1,.15-.37.46.46,0,0,1,.34-.15h2.13a.45.45,0,0,1,.34.15.5.5,0,0,1,.15.37v7.44a4.67,4.67,0,0,0,.76,3,2.9,2.9,0,0,0,2.38.93,4.59,4.59,0,0,0,1.73-.33,3.64,3.64,0,0,0,1.38-.94V130.14a.5.5,0,0,1,.15-.37.51.51,0,0,1,.37-.15h2.08a.49.49,0,0,1,.35.15.53.53,0,0,1,.14.37v13a.52.52,0,0,1-.14.36.46.46,0,0,1-.35.16h-2.08a.55.55,0,0,1-.52-.52v-.31A5.76,5.76,0,0,1,399,144a5.47,5.47,0,0,1-4.25-1.67A6.85,6.85,0,0,1,393.17,137.56Z"/><path class="cls-5" d="M408.61,136.64a7.74,7.74,0,0,1,1.76-5.33,6.63,6.63,0,0,1,9.55,0,8.12,8.12,0,0,1,1.73,5.4v.62a.55.55,0,0,1-.14.37.52.52,0,0,1-.38.15h-9.28q.3,3.59,4.28,3.58a7,7,0,0,0,3.57-.81.8.8,0,0,1,.29-.08c.19,0,.3.15.33.43l.16,1.6a.49.49,0,0,1-.25.55A9.09,9.09,0,0,1,416,144a9,9,0,0,1-3.27-.55,5.83,5.83,0,0,1-2.32-1.54,6.69,6.69,0,0,1-1.34-2.34A9,9,0,0,1,408.61,136.64Zm3.24-1.26h6.56a4.27,4.27,0,0,0-1-2.64,3.33,3.33,0,0,0-4.52,0A4.23,4.23,0,0,0,411.85,135.38Z"/><path class="cls-5" d="M431,143.16l6.4-18a.62.62,0,0,1,.65-.45h3.14a.63.63,0,0,1,.67.45l6.38,18a.6.6,0,0,1,0,.22c0,.22-.15.32-.45.32h-2.44a.54.54,0,0,1-.57-.41l-1.42-4.18h-7.55l-1.42,4.18a.56.56,0,0,1-.58.41h-2.44c-.3,0-.45-.1-.45-.32A.6.6,0,0,1,431,143.16Zm5.79-6.82h5.68l-2.84-8.43Z"/><path class="cls-5" d="M450.52,143.18v-13a.51.51,0,0,1,.14-.36.48.48,0,0,1,.35-.16h2.09a.5.5,0,0,1,.36.16.5.5,0,0,1,.16.36v.33a5.68,5.68,0,0,1,3.56-1.17,5.48,5.48,0,0,1,4.24,1.67,6.8,6.8,0,0,1,1.54,4.8v7.41a.54.54,0,0,1-.14.38.5.5,0,0,1-.35.14h-2.11a.48.48,0,0,1-.34-.14.5.5,0,0,1-.15-.38v-7.44a4.63,4.63,0,0,0-.77-3,2.9,2.9,0,0,0-2.39-.94,4.56,4.56,0,0,0-1.71.33,3.67,3.67,0,0,0-1.38.95v10.05a.5.5,0,0,1-.15.38.55.55,0,0,1-.37.14H451a.48.48,0,0,1-.49-.52Z"/><path class="cls-5" d="M466.63,143.18v-13a.51.51,0,0,1,.14-.36.48.48,0,0,1,.35-.16h2.09a.5.5,0,0,1,.36.16.5.5,0,0,1,.16.36v.33a5.68,5.68,0,0,1,3.56-1.17,5.48,5.48,0,0,1,4.24,1.67,6.8,6.8,0,0,1,1.54,4.8v7.41a.48.48,0,0,1-.49.52h-2.11a.49.49,0,0,1-.34-.14.5.5,0,0,1-.15-.38v-7.44a4.57,4.57,0,0,0-.77-3,2.9,2.9,0,0,0-2.39-.94,4.56,4.56,0,0,0-1.71.33,3.67,3.67,0,0,0-1.38.95v10.05a.5.5,0,0,1-.15.38.53.53,0,0,1-.37.14h-2.09a.48.48,0,0,1-.49-.52Z"/><path class="cls-5" d="M482.76,140.44a9,9,0,0,1,0-7.54,6.36,6.36,0,0,1,2.43-2.63,7.5,7.5,0,0,1,7.38,0A6.36,6.36,0,0,1,495,132.9a9,9,0,0,1,0,7.54,6.36,6.36,0,0,1-2.43,2.63,7.57,7.57,0,0,1-7.38,0A6.36,6.36,0,0,1,482.76,140.44Zm3.33-7.29a6.57,6.57,0,0,0,0,7,3.66,3.66,0,0,0,5.58,0,6.57,6.57,0,0,0,0-7,3.64,3.64,0,0,0-5.58,0Z"/><path class="cls-5" d="M497.33,131.61v-1.47a.47.47,0,0,1,.16-.37.49.49,0,0,1,.36-.15h1.82v-3.69a.5.5,0,0,1,.15-.37.44.44,0,0,1,.34-.14h2.11a.47.47,0,0,1,.35.14.53.53,0,0,1,.14.37v3.69h3.7a.47.47,0,0,1,.35.15.49.49,0,0,1,.14.37v1.47a.48.48,0,0,1-.14.37.47.47,0,0,1-.35.15h-3.7v6.1a6.81,6.81,0,0,0,.24,2.06,1.58,1.58,0,0,0,.66,1,2.38,2.38,0,0,0,1.17.23,5.91,5.91,0,0,0,1.3-.13c.28-.05.43,0,.47.29l.21,1.61a.71.71,0,0,1,0,.14.48.48,0,0,1-.46.53,10.73,10.73,0,0,1-1.71.12,5.15,5.15,0,0,1-3.74-1.21,5,5,0,0,1-1.24-3.71v-7h-1.82a.49.49,0,0,1-.36-.15A.46.46,0,0,1,497.33,131.61Z"/><path class="cls-5" d="M508.57,139.47a4.19,4.19,0,0,1,1.66-3.5,7.47,7.47,0,0,1,4.67-1.29h2.91V134a1.9,1.9,0,0,0-.68-1.68,4.29,4.29,0,0,0-2.31-.47,9.48,9.48,0,0,0-4.27,1,.73.73,0,0,1-.25.07c-.19,0-.3-.15-.35-.45l-.18-1.64a.45.45,0,0,1,.26-.49,8.74,8.74,0,0,1,2.27-.77,13.35,13.35,0,0,1,2.66-.28,6.93,6.93,0,0,1,4.54,1.2c.94.79,1.4,2.16,1.4,4.1v8.58a.5.5,0,0,1-.15.38.52.52,0,0,1-.35.14h-2.07a.57.57,0,0,1-.37-.14.5.5,0,0,1-.15-.38v-.31A5.91,5.91,0,0,1,514,144a6,6,0,0,1-3.86-1.19A4.05,4.05,0,0,1,508.57,139.47Zm3.15-.07q0,2.07,2.67,2.07a4.27,4.27,0,0,0,3.42-1.27v-3H515C512.82,137.17,511.72,137.92,511.72,139.4Z"/><path class="cls-5" d="M523.08,131.61v-1.47a.51.51,0,0,1,.52-.52h1.81v-3.69a.5.5,0,0,1,.15-.37.46.46,0,0,1,.35-.14H528a.45.45,0,0,1,.34.14.5.5,0,0,1,.15.37v3.69h3.7a.45.45,0,0,1,.34.15.5.5,0,0,1,.15.37v1.47a.48.48,0,0,1-.15.37.45.45,0,0,1-.34.15h-3.7v6.1a6.81,6.81,0,0,0,.24,2.06,1.54,1.54,0,0,0,.65,1,2.4,2.4,0,0,0,1.18.23,5.91,5.91,0,0,0,1.3-.13c.27-.05.43,0,.46.29l.21,1.61a.78.78,0,0,1,0,.14.48.48,0,0,1-.47.53,10.56,10.56,0,0,1-1.71.12,5.16,5.16,0,0,1-3.74-1.21,5,5,0,0,1-1.24-3.71v-7H523.6a.5.5,0,0,1-.37-.15A.48.48,0,0,1,523.08,131.61Z"/><path class="cls-5" d="M535.15,140.44a9,9,0,0,1,0-7.54,6.36,6.36,0,0,1,2.43-2.63,7.5,7.5,0,0,1,7.38,0,6.36,6.36,0,0,1,2.43,2.63,8.88,8.88,0,0,1,0,7.54,6.36,6.36,0,0,1-2.43,2.63,7.57,7.57,0,0,1-7.38,0A6.36,6.36,0,0,1,535.15,140.44Zm3.33-7.29a6.57,6.57,0,0,0,0,7,3.67,3.67,0,0,0,5.59,0,6.62,6.62,0,0,0,0-7,3.65,3.65,0,0,0-5.59,0Z"/><path class="cls-5" d="M551.21,143.18v-13a.5.5,0,0,1,.15-.37.46.46,0,0,1,.34-.15h2.1a.51.51,0,0,1,.52.52v.62a4.42,4.42,0,0,1,3.5-1.46,7,7,0,0,1,1.49.15.45.45,0,0,1,.36.53l-.22,2a.33.33,0,0,1-.16.25.34.34,0,0,1-.3,0,4.37,4.37,0,0,0-1.5-.25,3.23,3.23,0,0,0-1.94.58,3.47,3.47,0,0,0-1.23,1.65v9a.5.5,0,0,1-.15.38.53.53,0,0,1-.37.14h-2.1a.49.49,0,0,1-.34-.14A.5.5,0,0,1,551.21,143.18Z"/><path class="cls-5" d="M10.91,112.36h68.8a6.33,6.33,0,0,1,3,.72l6.11,3.33a6.59,6.59,0,0,0,6,0l6.11-3.33a6.36,6.36,0,0,1,3-.72h74c1.72,0,3.16-3.51,2.61-5.69-.39-1.56-.41-1.89-2.61-1.89H103.47a5.15,5.15,0,0,0-2.48.61l-7.43,4.11a3.83,3.83,0,0,1-3.5,0l-8-4.31a3.76,3.76,0,0,0-1.74-.42H16.16c-3.24,0-6,1.76-6.38,4.1C9.48,110.66,9.55,112.36,10.91,112.36Z"/></svg>