<svg id="Ebene_1" data-name="Ebene 1" xmlns="http://www.w3.org/2000/svg" xmlns:xlink="http://www.w3.org/1999/xlink" width="399.67" height="219.17" viewBox="0 0 399.67 219.17">
  <defs>
    <style>
      .cls-1 {
        font-size: 122px;
      }

      .cls-1, .cls-3 {
        fill: none;
      }

      .cls-1, .cls-8 {
        font-family: HarabaraMaisBold-HarabaraMaisBold, Harabara Mais Demo;
      }

      .cls-2 {
        letter-spacing: 0.02em;
      }

      .cls-4 {
        fill: #0e181e;
      }

      .cls-5 {
        clip-path: url(#clip-path);
      }

      .cls-6 {
        clip-path: url(#clip-path-2);
      }

      .cls-7 {
        fill: url(#Unbenannter_Verlauf_2);
      }

      .cls-8 {
        font-size: 27px;
      }

      .cls-9 {
        letter-spacing: 0.02em;
      }

      .cls-10 {
        font-family: MyriadPro-Regular, Myriad Pro;
      }

      .cls-11 {
        letter-spacing: -0.06em;
      }

      .cls-12 {
        font-size: 20px;
      }

      .cls-13 {
        letter-spacing: -0.02em;
      }
    </style>
    <clipPath id="clip-path">
      <text class="cls-1" transform="translate(10.67 97.79)">m<tspan class="cls-2" x="103.09" y="0">ati</tspan><tspan x="229.35" y="0">lda</tspan></text>
    </clipPath>
    <clipPath id="clip-path-2">
      <rect class="cls-3" x="-759.14" y="10.01" width="1149.81" height="95.12"/>
    </clipPath>
    <linearGradient id="Unbenannter_Verlauf_2" data-name="Unbenannter Verlauf 2" x1="-759.14" y1="57.57" x2="390.67" y2="57.57" gradientUnits="userSpaceOnUse">
      <stop offset="0" stop-color="#c62687"/>
      <stop offset="0.15" stop-color="#c62687"/>
      <stop offset="0.45" stop-color="#a1449a"/>
      <stop offset="0.81" stop-color="#6b7ec1"/>
      <stop offset="0.94" stop-color="#3a9dd6"/>
      <stop offset="1" stop-color="#3a9dd6"/>
    </linearGradient>
  </defs>
  <title>Matilda Logo</title>
  <path class="cls-4" d="M14.46,119.36H166.53a28.5,28.5,0,0,1,6.62.72l13.51,3.33a30.84,30.84,0,0,0,13.25,0l13.5-3.33a28.59,28.59,0,0,1,6.63-.72h163.6c3.79,0,7-3.51,5.77-5.69-.87-1.56-.92-1.89-5.77-1.89H219.05a22.91,22.91,0,0,0-5.48.61l-16.43,4.11a17.88,17.88,0,0,1-7.74,0l-17.6-4.31a16.75,16.75,0,0,0-3.85-.42H26.07c-7.18,0-13.25,1.76-14.12,4.1C11.29,117.66,11.45,119.36,14.46,119.36Z"/>
  <g class="cls-5">
    <g class="cls-6">
      <rect class="cls-7" x="-759.14" y="10.01" width="1149.81" height="95.12"/>
    </g>
    <path class="cls-3" d="M25.94,24.26V98.71H9.84V16.39h8.35A7.91,7.91,0,0,1,25.94,24.26ZM45.8,16.39c5.32,0,7.86,2.66,7.74,7.87V29H37.44V16.39Zm0,18.28c5.2,0,7.74,2.54,7.74,7.75V98.71H37.44v-64ZM121.7,24.5V71c0,19.25-10,28.81-30,28.69Q61.89,99.14,61.9,67.24c0-21.8,8.47-32.93,25.54-33.54,8,0,14.17,3.27,18.28,9.93V16.39h8A8.16,8.16,0,0,1,121.7,24.5Zm-43.22,42C78.36,79.46,82.72,86,91.92,86s13.8-6.54,13.8-19.49c-.36-12.35-4.84-18.4-13.56-18.4S79,54.16,78.48,66.51Zm67.07-15.13h-16.1c1.94-11.87,10.29-17.68,25.06-17.68,17.68,0,26.63,5.81,27,17.68V73.17c0,17.67-10.66,25.54-28,26.75-15.37,1.21-26-5.93-26-20.09.37-15.38,11.5-19.49,27.73-21.07,6.9-.85,10.41-2.9,10.41-6.41-.37-3.64-3.75-5.45-10.41-5.45C149.55,46.9,146.4,48.35,145.55,51.38Zm20.34,21.06V66.51a69.31,69.31,0,0,1-12.83,3.87c-6.42,1.21-9.69,4.24-9.69,9,.37,5.09,3,7.51,8.11,7.51C160.44,86.85,165.89,81.52,165.89,72.44Z"/>
  </g>
  <text class="cls-8" transform="translate(11.67 150.34)">Mul<tspan class="cls-9" x="39.47" y="0">t</tspan><tspan x="47.28" y="0">i</tspan><tspan class="cls-10" x="52.89" y="0">-</tspan><tspan x="61.18" y="0">Anno</tspan><tspan class="cls-11" x="122.66" y="0">T</tspan><tspan class="cls-9" x="137.4" y="0">a</tspan><tspan x="151.39" y="0">tor</tspan><tspan class="cls-12" x="182.79" y="0"> </tspan><tspan x="192.15" y="0">mul</tspan><tspan class="cls-9" x="234.16" y="0">t</tspan><tspan x="241.96" y="0">i</tspan><tspan class="cls-10" x="247.58" y="0">-</tspan><tspan x="255.87" y="0">language </tspan><tspan x="0" y="27">Interac</tspan><tspan class="cls-9" x="78.65" y="27">t</tspan><tspan x="86.45" y="27">i</tspan><tspan class="cls-13" x="92.07" y="27">v</tspan><tspan x="106.49" y="27">e</tspan><tspan class="cls-12" x="120.99" y="27"> </tspan><tspan x="130.35" y="27">Light</tspan><tspan class="cls-10" x="187.32" y="27">-</tspan><tspan x="195.6" y="27">weight </tspan><tspan x="0" y="54">Di</tspan><tspan class="cls-9" x="22.9" y="54">a</tspan><tspan x="36.88" y="54">logue</tspan><tspan class="cls-12" x="99.98" y="54"> </tspan><tspan x="109.34" y="54">Annot</tspan><tspan class="cls-9" x="178.08" y="54">a</tspan><tspan x="192.07" y="54">tor</tspan></text>
</svg>
